<?xml version="1.0" encoding="utf-8"?>
<!-- Generator: Adobe Illustrator 21.0.0, SVG Export Plug-In . SVG Version: 6.00 Build 0)  -->
<svg version="1.1" xmlns="http://www.w3.org/2000/svg" xmlns:xlink="http://www.w3.org/1999/xlink" x="0px" y="0px"
	 viewBox="0 0 1038.3 235.9" style="enable-background:new 0 0 1038.3 235.9;" xml:space="preserve">
<style type="text/css">
	.st0{fill:#1497E4;}
	.st1{fill:#404040;}
</style>
<g id="BACKGROUND">
</g>
<g id="OBJECTS">
	<g>
		<g>
			<g>
				<path class="st0" d="M150.3,93.4c-5.4,0-9.7-4.4-9.7-9.7c0-2.6,1.1-5,2.8-6.8c-1.7-0.6-3.4-0.9-5.3-0.9
					c-9.1,0-16.5,7.4-16.5,16.5s7.4,16.5,16.5,16.5s16.5-7.4,16.5-16.5c0-0.1,0-0.2,0-0.2C153.3,93,151.9,93.4,150.3,93.4z"/>
			</g>
		</g>
		<path class="st0" d="M85.8,93.4c-5.4,0-9.7-4.4-9.7-9.7c0-2.6,1.1-5,2.8-6.8c-1.7-0.6-3.4-0.9-5.3-0.9c-9.1,0-16.5,7.4-16.5,16.5
			s7.4,16.5,16.5,16.5s16.5-7.4,16.5-16.5c0-0.1,0-0.2,0-0.2C88.8,93,87.4,93.4,85.8,93.4z"/>
		<path class="st1" d="M175.5,154.4c0,20.3-16.5,36.8-36.8,36.8c-9.8,0-18.7-3.9-25.3-10.1c17.3-8.8,28.4-44.8,28.4-44.8
			s-31.4-22.1-71.9,0c0,0,11.2,36.2,28.6,44.9c-6.6,6.2-15.5,10.1-25.2,10.1c-20.3,0-36.8-16.5-36.8-36.8H26.3c0,25.9,21.1,47,47,47
			c12.7,0,24.2-5.1,32.7-13.3c8.5,8.2,20,13.3,32.7,13.3c25.9,0,47-21.1,47-47H175.5z"/>
		<path class="st1" d="M192.3,235.9H18.7c-9.6,0-17.5-7.8-17.5-17.5V44.7c0-9.6,7.8-17.5,17.5-17.5h173.7c9.6,0,17.5,7.8,17.5,17.5
			v173.7C209.8,228,202,235.9,192.3,235.9z M18.7,41.2c-1.9,0-3.5,1.6-3.5,3.5v173.7c0,1.9,1.6,3.5,3.5,3.5h173.7
			c1.9,0,3.5-1.6,3.5-3.5V44.7c0-1.9-1.6-3.5-3.5-3.5H18.7z"/>
	</g>
	<g>
		<path class="st1" d="M275.8,36.2h21.8l48.3,126.9h-25.4l-11.8-31.6h-44.3l-11.6,31.6h-25.4L275.8,36.2z M304.3,114.1l-17.5-49.9
			l-18.2,49.9H304.3z"/>
		<path class="st1" d="M393.6,164.9c-6.4,0-12.4-1.3-17.9-3.8c-5.5-2.5-10.2-6-14.1-10.4c-3.9-4.4-7-9.6-9.2-15.5
			c-2.2-5.9-3.3-12.2-3.3-19c0-6.8,1-13.1,3.1-19c2.1-5.8,5-11,8.7-15.4c3.7-4.4,8.1-7.9,13.2-10.4c5.1-2.5,10.7-3.8,16.8-3.8
			c6.9,0,13.1,1.7,18.7,5c5.5,3.3,9.9,7.7,13,13.1V32.6h24v103c0,2.5,0.4,4.3,1.3,5.4c0.8,1.1,2.3,1.7,4.3,1.8v20.4
			c-4.2,0.8-7.6,1.3-10.2,1.3c-4.3,0-7.8-1.1-10.5-3.2c-2.7-2.1-4.3-4.9-4.6-8.4l-0.5-5.9c-3.5,6-8.1,10.5-14,13.5
			C406.2,163.4,400.1,164.9,393.6,164.9z M399.9,144.5c2.3,0,4.6-0.4,7-1.2c2.4-0.8,4.6-1.9,6.6-3.3c2-1.4,3.8-3.1,5.5-5
			c1.6-1.9,2.8-4,3.7-6.3v-22.3c-1-2.6-2.3-5-4-7.2c-1.7-2.2-3.7-4.1-5.9-5.7c-2.2-1.6-4.5-2.9-7-3.8c-2.4-1-4.9-1.4-7.2-1.4
			c-3.6,0-6.9,0.8-9.9,2.3c-3,1.6-5.6,3.7-7.8,6.3c-2.1,2.7-3.8,5.8-5,9.2c-1.2,3.5-1.8,7-1.8,10.7c0,3.9,0.7,7.6,2,10.9
			c1.3,3.3,3.1,6.3,5.4,8.8c2.3,2.5,5,4.5,8.1,5.9C392.6,143.8,396.1,144.5,399.9,144.5z"/>
		<path class="st1" d="M513.4,164.9c-7.6,0-14.5-1.3-20.6-3.9s-11.2-6.2-15.5-10.6c-4.2-4.5-7.5-9.6-9.7-15.5
			c-2.3-5.8-3.4-12-3.4-18.4c0-6.6,1.1-12.8,3.4-18.6c2.3-5.8,5.5-11,9.7-15.5c4.2-4.5,9.4-8,15.5-10.6c6.1-2.6,12.9-3.9,20.6-3.9
			c7.6,0,14.5,1.3,20.5,3.9c6,2.6,11.1,6.2,15.4,10.6c4.2,4.5,7.5,9.6,9.7,15.5c2.3,5.8,3.4,12,3.4,18.6c0,6.4-1.1,12.6-3.4,18.4
			c-2.3,5.8-5.5,11-9.7,15.5c-4.2,4.5-9.3,8-15.4,10.6C527.9,163.6,521,164.9,513.4,164.9z M488.9,116.5c0,4.2,0.6,8,1.9,11.4
			c1.3,3.4,3,6.3,5.2,8.8c2.2,2.5,4.8,4.4,7.8,5.8c3,1.4,6.2,2.1,9.7,2.1c3.5,0,6.7-0.7,9.7-2.1c3-1.4,5.6-3.3,7.8-5.8
			c2.2-2.5,3.9-5.5,5.2-8.9c1.3-3.5,1.9-7.3,1.9-11.4c0-4.1-0.6-7.8-1.9-11.3c-1.3-3.5-3-6.4-5.2-8.9c-2.2-2.5-4.8-4.4-7.8-5.8
			c-3-1.4-6.2-2.1-9.7-2.1c-3.5,0-6.7,0.7-9.7,2.1c-3,1.4-5.6,3.4-7.8,5.9c-2.2,2.5-3.9,5.5-5.2,8.9
			C489.6,108.7,488.9,112.4,488.9,116.5z"/>
		<path class="st1" d="M633.4,158.3c-3.2,1.4-7.2,2.9-11.8,4.3c-4.6,1.4-9.5,2.1-14.7,2.1c-3.3,0-6.5-0.4-9.4-1.3
			c-2.9-0.8-5.5-2.2-7.7-4c-2.2-1.8-4-4.2-5.3-7.2c-1.3-2.9-2-6.5-2-10.6V87.9h-12.3V69.4h12.3V39.1h24v30.4h19.7v18.4h-19.7v45.8
			c0,3.3,0.9,5.7,2.6,7.1c1.7,1.4,3.8,2.1,6.3,2.1s4.9-0.4,7.3-1.3c2.4-0.8,4.3-1.5,5.7-2.1L633.4,158.3z"/>
		<path class="st1" d="M671.5,164.9c-4.5,0-8.8-0.7-12.7-2.2c-3.9-1.5-7.3-3.6-10.2-6.3c-2.9-2.7-5.1-5.8-6.7-9.4
			c-1.6-3.6-2.4-7.5-2.4-11.8c0-4.4,1-8.5,3-12.2c2-3.8,4.7-6.9,8.2-9.6c3.5-2.6,7.7-4.7,12.6-6.2c4.9-1.5,10.2-2.2,16.1-2.2
			c4.2,0,8.3,0.4,12.2,1.1c4,0.7,7.5,1.7,10.6,3v-5.4c0-6.2-1.8-11-5.3-14.3c-3.5-3.3-8.7-5-15.6-5c-5,0-9.9,0.9-14.7,2.7
			c-4.8,1.8-9.7,4.4-14.7,7.9l-7.3-15.2c12-8,25-12,39-12c13.5,0,23.9,3.3,31.4,9.9c7.4,6.6,11.2,16.2,11.2,28.7v29.1
			c0,2.5,0.4,4.3,1.3,5.4s2.4,1.7,4.4,1.8v20.4c-4.1,0.8-7.6,1.3-10.5,1.3c-4.5,0-8-1-10.5-3c-2.4-2-4-4.7-4.6-8l-0.5-5.2
			c-4.2,5.5-9.2,9.7-15.2,12.5C684.6,163.5,678.3,164.9,671.5,164.9z M678.3,147.4c4.1,0,7.9-0.7,11.5-2.1c3.6-1.4,6.5-3.3,8.5-5.7
			c2.6-2,3.9-4.3,3.9-6.8V122c-2.9-1.1-6-1.9-9.3-2.6c-3.3-0.7-6.6-1-9.7-1c-6.2,0-11.3,1.4-15.2,4.2c-3.9,2.8-5.9,6.3-5.9,10.6
			c0,4.1,1.5,7.4,4.6,10.1C669.9,146.1,673.7,147.4,678.3,147.4z"/>
	</g>
	<g>
		<path class="st0" d="M842.4,0.1c9.8,0,18.3,1.3,25.7,4c7.4,2.6,13.5,6.2,18.4,10.6c4.9,4.4,8.6,9.4,11,15.1
			c2.5,5.7,3.7,11.6,3.7,17.7c0,5.7-1.1,11.3-3.3,16.9c-2.2,5.6-5.5,10.7-10,15.5s-10.1,8.8-16.8,12.2c-6.8,3.4-14.7,5.8-23.9,7.2
			c-0.2,4.2-0.3,8.1-0.4,11.7c-0.1,1.5-0.1,3-0.2,4.5c-0.1,1.5-0.1,2.9-0.1,4.1c0,1.3-0.1,2.3-0.1,3.3c0,0.9,0,1.6,0,1.9
			c-0.1,4.1-0.6,8.3-1.4,12.7c-0.8,4.4-2.1,8.7-3.7,12.9c-1.6,4.2-3.6,8.2-5.8,11.9c-2.3,3.8-5,7-8,9.9c-3.1,2.8-6.5,5.1-10.3,6.7
			c-3.8,1.7-7.9,2.5-12.4,2.5c-4.8,0-9-1.2-12.8-3.7c-3.8-2.5-7-5.8-9.9-10c-2.8-4.2-5.2-9-7.2-14.5c-2-5.5-3.5-11.2-4.8-17.2
			c-1.2-6-2.1-12-2.7-18c-0.6-6.1-0.8-11.8-0.8-17.1c0-9.2,0.8-18.1,2.5-26.6c1.7-8.6,4.1-16.6,7.2-24c3.1-7.5,7-14.3,11.4-20.5
			c4.5-6.2,9.5-11.5,15.1-15.9c5.6-4.4,11.7-7.8,18.3-10.3C828,1.3,835,0.1,842.4,0.1z M790.1,98.7c0,2.4,0,5.6,0,9.6
			c0,4,0.2,8.4,0.5,13c0.3,4.6,0.8,9.3,1.4,14c0.6,4.7,1.6,9,2.8,12.8c1.3,3.8,2.8,6.9,4.7,9.3c1.9,2.4,4.3,3.6,7.1,3.6
			c3,0,5.5-1,7.6-3.1c2.1-2.1,3.8-4.7,5.2-8c1.4-3.3,2.5-7,3.3-11.2c0.8-4.2,1.4-8.3,1.8-12.5c0.4-4.2,0.7-8.2,0.8-12
			c0.1-3.8,0.2-7.1,0.2-9.7v-4.1c-4.8-1.9-8.6-3.6-11.4-5.1c-2.8-1.5-4.8-2.9-6.2-4.2c-1.4-1.3-2.3-2.7-2.7-4.2
			c-0.4-1.5-0.6-3.2-0.6-5.2c0-1,0-2.1,0.1-3.1c0.1-1,0.2-1.9,0.5-2.7c0.3-0.8,0.6-1.4,1.1-1.9c0.5-0.5,1.2-0.7,2.1-0.7
			c0.6,0,1.1,0.1,1.6,0.3c0.5,0.2,1.1,0.6,1.9,1c1.9,1,3.7,1.9,5.2,2.6c1.6,0.7,2.9,1.2,4,1.6c1.3,0.5,2.4,0.8,3.5,1
			c0-0.8,0-2.3,0-4.5c0-2.2,0.2-4.8,0.5-7.7c0.3-2.9,0.9-5.9,1.6-9c0.8-3.1,1.9-6,3.3-8.6c1.5-2.6,3.3-4.8,5.7-6.5
			c2.3-1.7,5.2-2.6,8.6-2.6c1,0,2.1,0.1,3.2,0.3c1.1,0.2,2.1,0.6,3,1.1c0.9,0.6,1.7,1.3,2.3,2.2c0.6,0.9,0.9,2.1,0.9,3.6
			c0,0.4,0,0.7,0,0.8c0,0.1,0,0.3,0,0.6l-5.3,22.4l-0.8,6.9c5.7-0.9,10.6-2.3,14.8-4.2c4.1-1.9,7.6-4.2,10.3-6.8
			c2.7-2.6,4.7-5.5,6-8.6s2-6.4,2-9.7c0-3.3-0.6-6.6-1.9-10c-1.3-3.4-3.4-6.5-6.5-9.3c-3.1-2.8-7.2-5.1-12.4-6.9
			c-5.2-1.8-11.7-2.7-19.6-2.7c-5.9,0-11.2,1.1-16,3.4c-4.8,2.2-9,5.3-12.7,9.1c-3.7,3.8-7,8.3-9.7,13.4c-2.7,5.1-5,10.6-6.8,16.4
			c-1.8,5.8-3.1,11.8-3.9,17.9C790.5,86.9,790.1,92.9,790.1,98.7z"/>
		<path class="st0" d="M925.3,159.2c-5.5,0-10.3-1-14.4-3c-4.1-2-7.5-4.6-10.3-8c-2.7-3.3-4.8-7.2-6.2-11.6c-1.4-4.4-2.1-9-2.1-13.8
			c0-3.3,0.3-6.7,1-10.3c0.6-3.6,1.6-7.2,2.9-10.7c1.3-3.5,3-6.8,4.9-10c2-3.2,4.3-6,6.9-8.4c2.6-2.4,5.6-4.3,8.9-5.8
			c3.3-1.4,6.9-2.1,11-2.1c3.3,0,6.3,0.5,9.1,1.6c2.8,1,5.2,2.5,7.3,4.4c2.1,1.9,3.7,4.2,4.8,6.9c1.2,2.7,1.7,5.7,1.7,9
			c0,3.6-0.9,7.2-2.7,10.8c-1.8,3.6-4.2,7-7.4,10.2c-3.1,3.2-6.9,6.1-11.2,8.6c-4.3,2.5-9,4.5-14.1,5.8c0.9,1.6,1.7,2.9,2.6,3.9
			c0.8,1,1.7,1.9,2.6,2.4c0.9,0.6,1.8,1,2.7,1.2c1,0.2,2,0.3,3.1,0.3c3.5,0,7.2-0.7,11-2.1c3.9-1.4,7.6-3.1,11.3-5.2
			c3.7-2.1,7.1-4.4,10.4-6.9c3.3-2.5,6-4.8,8.3-7l11.3,11.7c-5.1,5.3-10.6,10-16.3,14.1c-2.5,1.7-5.2,3.5-8.1,5.2
			c-2.9,1.7-5.9,3.2-9.1,4.5c-3.2,1.3-6.5,2.4-9.9,3.1C932.2,158.8,928.8,159.2,925.3,159.2z M913.7,118.2c2.1,0,4.4-0.5,6.9-1.6
			c2.5-1.1,4.8-2.5,6.9-4.1c2.1-1.7,3.9-3.5,5.4-5.5c1.5-2,2.2-3.9,2.2-5.8c0-2.6-0.5-4.8-1.4-6.5c-1-1.7-2.1-2.5-3.5-2.5
			c-2.5,0-4.6,0.5-6.4,1.4c-1.8,0.9-3.3,2.1-4.5,3.6c-1.2,1.5-2.2,3.2-2.9,5.1c-0.7,1.9-1.3,3.8-1.7,5.7c-0.4,1.9-0.6,3.8-0.7,5.6
			C913.7,115.3,913.7,116.9,913.7,118.2z"/>
		<path class="st0" d="M1037.1,139.6c-5.6,3.3-10.6,6.1-14.9,8.6c-4.4,2.4-8.2,4.5-11.7,6.1c-3.4,1.6-6.4,2.9-9.1,3.7
			c-2.6,0.8-5,1.2-7.2,1.2c-4.4,0-8.3-1.3-11.7-4c-3.4-2.7-6.2-6.5-8.5-11.6c-2.3-5-4-11.1-5.1-18.3s-1.7-15.2-1.7-24.2
			c0-3.5,0.1-7.2,0.4-11.2c0.3-4,0.7-7.9,1.2-11.8c-1.7-0.2-3.1-0.5-4.1-0.7c-1-0.2-2-0.4-3.1-0.6c-1.1-0.2-2.4-0.4-4.1-0.7
			c-1.7-0.2-4.1-0.5-7.2-0.9c-1.4-0.2-2.5-0.5-3.2-1c-0.8-0.5-1.3-1.1-1.7-1.7c-0.3-0.7-0.6-1.4-0.6-2.1c-0.1-0.7-0.1-1.4-0.1-1.9
			c0-1.2,0.6-2.1,1.7-2.7c1.1-0.6,2.6-1.1,4.4-1.4c1.8-0.3,3.7-0.4,5.8-0.5c2.1,0,4.2,0,6.1,0c1.9,0.1,3.7,0.1,5.2,0.1
			c1.5,0,2.6,0,3.2-0.1c1.6-7.9,3.6-15.5,6-22.8c2.4-7.4,5.1-13.9,8.1-19.6c3-5.7,6.3-10.3,9.8-13.8c3.5-3.5,7.3-5.2,11.2-5.2
			c2.5,0,4.8,0.7,6.9,2.1c2.1,1.4,3.8,3.3,5.3,5.6c1.5,2.3,2.6,5,3.4,8.2c0.8,3.1,1.2,6.4,1.2,9.7c0,2.9-0.4,5.9-1.2,9
			c-0.8,3.2-1.9,6.4-3.3,9.7c-1.4,3.3-3,6.6-4.9,10c-1.9,3.4-3.9,6.7-6,10c0.5,0.1,1.4,0.1,2.6,0.1c1.2,0,2.6,0.1,4.2,0.1
			c1.6,0.1,3.3,0.1,5.2,0.2c1.9,0.1,3.7,0.2,5.4,0.2c1.7,0.1,3.4,0.1,4.9,0.2c1.5,0.1,2.8,0.1,3.8,0.2c1.2,0.1,2,0.6,2.5,1.7
			c0.5,1.1,0.8,2.5,0.8,4.2c0,2-0.6,3.7-1.7,5c-1.2,1.3-2.4,1.9-3.8,1.9H998c-1.7,2.3-3.4,4.6-5.1,6.9c-1.7,2.2-3.3,4.3-4.8,6.1
			c-0.2,3.6-0.4,7.2-0.6,10.6c-0.1,1.5-0.1,3.1-0.2,4.7c-0.1,1.6-0.1,3.2-0.2,4.8c-0.1,1.6-0.1,3.1-0.1,4.5c0,1.5,0,2.8,0,4
			c0,3.1,0.3,5.8,0.9,7.9c0.6,2.2,1.4,3.9,2.5,5.3c1.1,1.4,2.5,2.4,4.1,3c1.6,0.6,3.4,0.9,5.4,0.9c1.2,0,2.7-0.3,4.6-0.9
			c1.8-0.6,3.8-1.4,6-2.4c2.2-1,4.5-2.2,6.9-3.6c2.4-1.4,4.8-2.9,7.2-4.6c2.4-1.7,4.6-3.4,6.8-5.2c2.2-1.8,4.1-3.7,5.8-5.6V139.6z
			 M1009.2,29.1c0-0.6,0-1.4-0.1-2.1c-0.1-0.8-0.3-1.5-0.6-2.2c-0.3-0.7-0.7-1.3-1.4-1.7c-0.6-0.5-1.5-0.7-2.6-0.7
			c-1.5,0-3,1.3-4.6,4c-1.5,2.7-3,6.1-4.5,10.3c-1.4,4.2-2.8,8.7-4,13.7c-1.3,5-2.4,9.9-3.4,14.6c0.9,0.1,1.7,0.2,2.6,0.3
			c0.9,0.1,1.8,0.2,2.7,0.3c1.7-3,3.6-6.2,5.5-9.6c1.9-3.5,3.6-6.9,5.1-10.2c1.5-3.3,2.8-6.5,3.8-9.4
			C1008.7,33.4,1009.2,31,1009.2,29.1z"/>
	</g>
	<g>
		<path d="M286.3,190.2c-0.3-7.2-5.7-10.7-13.4-10.7c-4.7,0-11.5,2-11.5,8.9c0,6.7,7.2,7.9,14.2,9.3c7.2,1.4,14.3,3.4,14.3,11.6
			c0,8.7-8.3,11.8-14.7,11.8c-9.8,0-17.8-4-17.7-14.8h2.6c-0.5,9.1,6.7,12.6,15.1,12.6c5,0,12.1-2.3,12.1-9.6c0-7-7.2-8.4-14.3-9.8
			c-7.1-1.4-14.2-3.2-14.2-11.1c0-8,7.4-11.1,14.1-11.1c8.7,0,15.5,3.8,16,13H286.3z"/>
		<path d="M296.1,184.3v-6h2.2v6H296.1z M296.1,220.1V190h2.2v30.1H296.1z"/>
		<path d="M316.5,191.9h-6.6V213c0,4.8,2.3,5.4,6.5,5.2v1.9c-4.5,0.3-9-0.4-8.7-7.2v-21.1h-5.6V190h5.6v-9.4h2.2v9.4h6.6V191.9z"/>
		<path d="M321.5,205.3c-0.2,7.1,3.6,13.5,11.1,13.5c5.7,0,9.7-3.3,10.8-9h2.2c-1.2,7.1-5.8,10.9-13,10.9c-8.7,0-13.5-6.9-13.3-15.2
			c-0.2-8.3,4.2-16.3,13.3-16.3c9.4,0,13.7,7.4,13.3,16.1H321.5z M343.6,203.4c-0.2-6.3-4.2-12.2-11-12.2c-6.7,0-10.6,6.2-11.1,12.2
			H343.6z"/>
		<path d="M390.6,213.7h-0.1c-2.5,4.8-6.2,7.2-11.6,7.2c-9.1,0-13-7.4-13-15.7c0-8.9,4.3-15.8,13.4-15.8c4.9,0,9.6,2.7,11.1,7.4h0.1
			v-18.5h2.2v41.9h-2.2V213.7z M390.5,205.1c0-7-3.5-13.9-11.2-13.9c-8,0-11.2,6.6-11.2,13.9c0,7.1,3.5,13.8,11.3,13.8
			C387,218.9,390.5,212,390.5,205.1z"/>
		<path d="M400.8,205.3c-0.2,7.1,3.6,13.5,11.1,13.5c5.7,0,9.7-3.3,10.8-9h2.2c-1.2,7.1-5.8,10.9-13,10.9c-8.7,0-13.5-6.9-13.3-15.2
			c-0.2-8.3,4.2-16.3,13.3-16.3c9.4,0,13.7,7.4,13.3,16.1H400.8z M422.9,203.4c-0.2-6.3-4.2-12.2-11-12.2c-6.7,0-10.6,6.2-11.1,12.2
			H422.9z"/>
		<path d="M468.9,214.6c0,1.7-0.1,3.6,2,3.6c0.4,0,0.9-0.1,1.6-0.2v1.9c-0.6,0.2-1.2,0.2-1.8,0.2c-3.5,0-4-1.9-4-4.4v-1.6h-0.1
			c-1.4,3.6-5.4,6.7-11.2,6.7c-5.7,0-10.1-2.2-10.1-8.5c0-7.1,6.1-8.4,11.1-8.9c10-0.6,10.4-1.4,10.4-6.3c0-1.3-1.5-5.9-8.4-5.9
			c-5.4,0-9,2.8-9.3,8h-2.2c0.3-6.6,4.4-10,11.5-10c5.3,0,10.6,1.6,10.6,7.9V214.6z M466.7,203c-1.7,2.1-6.6,1.7-10.9,2.3
			c-5.3,0.6-8.3,2.5-8.3,7c0,3.7,2.6,6.6,7.9,6.6c10.1,0,11.3-8.7,11.3-10.3V203z"/>
		<path d="M499.3,213.7h-0.1c-2.5,4.8-6.2,7.2-11.6,7.2c-9.1,0-13-7.4-13-15.7c0-8.9,4.3-15.8,13.4-15.8c4.9,0,9.6,2.7,11.1,7.4h0.1
			v-18.5h2.2v41.9h-2.2V213.7z M499.2,205.1c0-7-3.5-13.9-11.2-13.9c-8,0-11.2,6.6-11.2,13.9c0,7.1,3.5,13.8,11.3,13.8
			C495.7,218.9,499.2,212,499.2,205.1z"/>
		<path d="M521,189.3c8.9,0,13.8,7.2,13.8,15.8c0,8.6-4.9,15.8-13.8,15.8s-13.8-7.2-13.8-15.8C507.2,196.5,512.1,189.3,521,189.3z
			 M521,218.9c7.5,0,11.6-6.6,11.6-13.8s-4.1-13.8-11.6-13.8s-11.6,6.6-11.6,13.8S513.5,218.9,521,218.9z"/>
		<path d="M562.8,199.3c-0.5-5.3-4.8-8.1-10.2-8.1c-7.5,0-11.6,6.7-11.6,13.5c0,8.2,3.8,14.1,11.6,14.1c5.6,0,9.7-3.9,10.5-9.4h2.2
			c-0.7,5.4-3.9,9.1-8.2,10.6c-1.2,0.4-2.4,0.6-3.7,0.7l-2.2,2.6l0.1,0.1c0.5-0.2,1.2-0.5,2.2-0.5c2.3-0.1,4.3,1.3,4.3,4
			c0,2.8-1.8,4.5-5.7,4.5c-2.5,0-4.4-0.8-5.4-1.5l0.6-1.4c1.3,0.6,2.6,1.3,4.7,1.3c1.9,0,3.6-0.8,3.6-2.9c0-1.7-1.6-2.5-2.8-2.5
			c-1.2,0-2.2,0.3-3.1,0.7l-0.9-0.8l2.8-3.8c-2.1-0.1-3.8-0.5-5.3-1.2c-5.2-2.7-7.5-8.4-7.5-14.8c0-8.4,4.9-15.5,13.8-15.5
			c6.5,0,11.8,3.2,12.4,10H562.8z"/>
		<path d="M592.7,214.6c0,1.7-0.1,3.6,2,3.6c0.4,0,0.9-0.1,1.6-0.2v1.9c-0.6,0.2-1.2,0.2-1.8,0.2c-3.5,0-4-1.9-4-4.4v-1.6h-0.1
			c-1.4,3.6-5.4,6.7-11.2,6.7c-5.7,0-10.1-2.2-10.1-8.5c0-7.1,6.1-8.4,11.1-8.9c10-0.6,10.4-1.4,10.4-6.3c0-1.3-1.5-5.9-8.4-5.9
			c-5.4,0-9,2.8-9.3,8h-2.2c0.3-6.6,4.4-10,11.5-10c5.3,0,10.6,1.6,10.6,7.9V214.6z M590.5,203c-1.7,2.1-6.6,1.7-10.9,2.3
			c-5.3,0.6-8.3,2.5-8.3,7c0,3.7,2.6,6.6,7.9,6.6c10.1,0,11.3-8.7,11.3-10.3V203z M573.8,184.4c0.2-2.6,1.8-5.3,4.5-5.3
			c2.6-0.2,5.6,3.2,8.1,3.3c1.6,0,2.5-1.8,2.6-3.3h1.7c-0.3,2.6-1.5,5.3-4.5,5.3c-1.3,0-2.8-0.9-4-1.7s-2.1-1.2-2.5-1.3
			c-0.4-0.2-0.9-0.3-1.5-0.3c-1.6,0-2.5,1.5-2.8,3.3H573.8z"/>
		<path d="M612.3,189.3c8.9,0,13.8,7.2,13.8,15.8c0,8.6-4.9,15.8-13.8,15.8s-13.8-7.2-13.8-15.8
			C598.4,196.5,603.4,189.3,612.3,189.3z M612.3,218.9c7.5,0,11.6-6.6,11.6-13.8s-4.1-13.8-11.6-13.8s-11.6,6.6-11.6,13.8
			S604.8,218.9,612.3,218.9z"/>
		<path d="M670.9,213.7h-0.1c-2.5,4.8-6.2,7.2-11.6,7.2c-9.1,0-13-7.4-13-15.7c0-8.9,4.3-15.8,13.4-15.8c4.9,0,9.6,2.7,11.1,7.4h0.1
			v-18.5h2.2v41.9h-2.2V213.7z M670.9,205.1c0-7-3.5-13.9-11.2-13.9c-8,0-11.2,6.6-11.2,13.9c0,7.1,3.5,13.8,11.3,13.8
			C667.3,218.9,670.9,212,670.9,205.1z"/>
		<path d="M692.7,189.3c8.9,0,13.8,7.2,13.8,15.8c0,8.6-4.9,15.8-13.8,15.8s-13.8-7.2-13.8-15.8
			C678.8,196.5,683.8,189.3,692.7,189.3z M692.7,218.9c7.5,0,11.6-6.6,11.6-13.8s-4.1-13.8-11.6-13.8s-11.6,6.6-11.6,13.8
			S685.2,218.9,692.7,218.9z"/>
		<path d="M728.4,178.3h16.8c10,0,13.2,5.5,13.2,10.8c0,4.5-3.3,8.3-8.2,8.9l0.1,0.1c1.1-0.2,9.4,1.8,9.4,10.3
			c0,7.6-5.9,11.7-14.6,11.7h-16.8V178.3z M731,197.3h14.2c7,0,10.6-3.5,10.6-8.6c0-6.1-5-8.2-10.6-8.2H731V197.3z M731,217.9h14.2
			c7.4,0,12-3.2,12-9.5c0-7.2-6.6-8.9-12-8.9H731V217.9z"/>
		<path d="M767.2,196.7h0.2c1.1-4,6.1-7,11.6-6.9v2.2c-2.3-0.3-5.6,0.3-8.3,2.9c-2.2,2.3-3.2,4.2-3.4,8.7v16.5H765V190h2.2V196.7z"
			/>
		<path d="M803.5,214.6c0,1.7-0.1,3.6,2,3.6c0.4,0,0.9-0.1,1.6-0.2v1.9c-0.6,0.2-1.2,0.2-1.8,0.2c-3.5,0-4-1.9-4-4.4v-1.6h-0.1
			c-1.4,3.6-5.4,6.7-11.2,6.7c-5.7,0-10.1-2.2-10.1-8.5c0-7.1,6.1-8.4,11.1-8.9c10-0.6,10.4-1.4,10.4-6.3c0-1.3-1.5-5.9-8.4-5.9
			c-5.4,0-9,2.8-9.3,8h-2.2c0.3-6.6,4.4-10,11.5-10c5.3,0,10.6,1.6,10.6,7.9V214.6z M801.3,203c-1.7,2.1-6.6,1.7-10.9,2.3
			c-5.3,0.6-8.3,2.5-8.3,7c0,3.7,2.6,6.6,7.9,6.6c10.1,0,11.3-8.7,11.3-10.3V203z"/>
		<path d="M811.7,210.1c0.3,5.6,4.6,8.8,10,8.8c3.9,0,9.6-1.2,9.6-6.4c0-10.2-20.7-3.2-20.7-15.5c0-5.9,5.8-7.7,10.9-7.7
			c6.3,0,11.1,2.8,11.1,9.6h-2.2c0-5.5-3.9-7.7-8.9-7.7c-4,0-8.7,1.5-8.7,5.8c0,4.9,5.2,5.5,10,6.6c6,1.1,10.7,2.6,10.7,8.9
			c0,6.5-6.5,8.3-11.8,8.3c-6.9,0-12-3.7-12.2-10.7H811.7z"/>
		<path d="M839.3,184.3v-6h2.2v6H839.3z M839.3,220.1V190h2.2v30.1H839.3z"/>
		<path d="M851.4,178.3v41.9h-2.2v-41.9H851.4z"/>
		<path d="M893.3,221.1c-12.5,0-19.9-9.7-19.9-21.9s7.4-21.9,19.9-21.9c12.5,0,19.9,9.7,19.9,21.9S905.8,221.1,893.3,221.1z
			 M893.3,218.9c10.9,0,17.3-9,17.3-19.7c0-10.7-6.4-19.7-17.3-19.7c-11,0-17.4,9-17.4,19.7C875.9,209.9,882.3,218.9,893.3,218.9z"
			/>
		<path d="M918.3,190h2.2v6.5h0.1c1.6-4.5,6-7.2,10.8-7.2c10.6,0,10.7,8.5,10.7,12.2v18.6h-2.2v-19.1c0-3-0.4-9.9-8.6-9.9
			c-6.8,0-10.8,5.3-10.8,12.6v16.3h-2.2V190z"/>
		<path d="M951.5,178.3v41.9h-2.2v-41.9H951.5z"/>
		<path d="M959.1,184.3v-6h2.2v6H959.1z M959.1,220.1V190h2.2v30.1H959.1z"/>
		<path d="M968.4,190h2.2v6.5h0.1c1.6-4.5,6-7.2,10.8-7.2c10.6,0,10.7,8.5,10.7,12.2v18.6H990v-19.1c0-3-0.4-9.9-8.6-9.9
			c-6.8,0-10.8,5.3-10.8,12.6v16.3h-2.2V190z"/>
		<path d="M999.7,205.3c-0.2,7.1,3.6,13.5,11.1,13.5c5.7,0,9.7-3.3,10.8-9h2.2c-1.2,7.1-5.8,10.9-13,10.9c-8.7,0-13.5-6.9-13.3-15.2
			c-0.2-8.3,4.2-16.3,13.3-16.3c9.4,0,13.7,7.4,13.3,16.1H999.7z M1021.8,203.4c-0.2-6.3-4.2-12.2-11-12.2
			c-6.7,0-10.6,6.2-11.1,12.2H1021.8z"/>
	</g>
</g>
<g id="DESIGNED_BY_FREEPIK">
	<g>
	</g>
	<g>
	</g>
	<g>
	</g>
	<g>
	</g>
	<g>
	</g>
	<g>
	</g>
</g>
</svg>
